<svg width="100" height="32" viewBox="0 0 100 32" fill="none" xmlns="http://www.w3.org/2000/svg">
<path d="M32 16C32 24.8366 24.8366 32 16 32C7.16339 32 0 24.8366 0 16C0 7.16339 7.16365 0 16 0C24.8363 0 32 7.1634 32 16Z" fill="white"/>
<path d="M13.049 26.5057C12.6299 26.5057 12.2902 26.166 12.2902 25.7468V16.7687C9.18034 15.8385 6.46064 13.7636 4.76683 10.9064C4.62779 10.6718 4.62522 10.3807 4.76026 10.1438C4.89522 9.90688 5.14695 9.76054 5.41959 9.76054H13.049C13.4682 9.76054 13.8079 10.1003 13.8079 10.5194V15.5825C15.2461 15.8642 16.7715 15.863 18.2089 15.5791V10.5194C18.2089 10.1003 18.5486 9.76054 18.9678 9.76054H26.5804C26.853 9.76054 27.1048 9.90688 27.2397 10.1438C27.3748 10.3807 27.3722 10.6718 27.2332 10.9064C25.5424 13.7586 22.8296 15.8312 19.7266 16.7637V20.6733C19.7266 21.0925 19.3869 21.4322 18.9678 21.4322H16.0372C15.6181 21.4322 15.2784 21.0925 15.2784 20.6733C15.2784 20.2542 15.6181 19.9145 16.0372 19.9145H18.2089V17.1224C16.7665 17.3732 15.2509 17.3741 13.8079 17.1253V25.7468C13.8079 26.166 13.4682 26.5057 13.049 26.5057ZM6.84909 11.2783C8.24564 13.092 10.1516 14.4438 12.2902 15.1759V11.2783H6.84909ZM19.7266 11.2783V15.1701C21.8586 14.4368 23.758 13.0873 25.151 11.2783H19.7266Z" fill="#031E45"/>
<path d="M18.9837 8.54665C17.8909 8.54665 17.0016 9.43584 17.0016 10.5285C17.0016 11.6214 17.8909 12.5106 18.9837 12.5106C20.0765 12.5106 20.9657 11.6214 20.9657 10.5285C20.9657 9.43584 20.0765 8.54665 18.9837 8.54665Z" fill="#5BC3F5"/>
<path d="M13.0518 14.0473C11.959 14.0473 11.0697 14.9365 11.0697 16.0292C11.0697 17.1221 11.959 18.0113 13.0518 18.0113C14.1446 18.0113 15.0338 17.1221 15.0338 16.0292C15.0338 14.9365 14.1446 14.0473 13.0518 14.0473Z" fill="#CEDE00"/>
<path d="M13.0518 23.2176C11.959 23.2176 11.0697 24.1068 11.0697 25.1995C11.0697 26.2924 11.959 27.1816 13.0518 27.1816C14.1446 27.1816 15.0338 26.2924 15.0338 25.1995C15.0338 24.1068 14.1446 23.2176 13.0518 23.2176Z" fill="#F775A5"/>
<path d="M46.152 5.89477L38.6197 5.87636C38.2445 5.87636 37.9224 6.01241 37.6679 6.2747C37.4001 6.53528 37.2641 6.86043 37.2641 7.24083V18.0556C37.2641 18.4308 37.4001 18.7534 37.6619 19.0072C37.9224 19.2754 38.2445 19.411 38.6197 19.411C38.9927 19.411 39.317 19.2763 39.5796 19.0132C39.8478 18.7534 39.9839 18.4308 39.9839 18.0556V13.9996H44.6278C44.9991 13.9996 45.3221 13.8686 45.5916 13.6081C45.8572 13.3415 45.9924 13.0177 45.9924 12.6442C45.9924 12.2707 45.8572 11.9463 45.5886 11.6776C45.3229 11.4196 44.9999 11.2891 44.6278 11.2891H39.9839V8.59748L46.1519 8.61465C46.5267 8.61465 46.8488 8.47901 47.1029 8.21672C47.3711 7.95656 47.5072 7.63396 47.5072 7.2592C47.5072 6.88782 47.3763 6.56475 47.1149 6.29526C46.8492 6.0291 46.525 5.89477 46.152 5.89477Z" fill="white"/>
<path d="M55.1283 5.87642C53.2709 5.87642 51.6633 6.54259 50.3505 7.85568C49.0308 9.17519 48.3622 10.7865 48.3622 12.6442C48.3622 14.5019 49.0312 16.1098 50.3501 17.4224C51.6629 18.742 53.2705 19.4111 55.1283 19.4111C56.9853 19.4111 58.5963 18.742 59.9151 17.4229C61.2284 16.1094 61.8944 14.5015 61.8944 12.6442C61.8944 10.7868 61.2284 9.17602 59.9147 7.85526C58.5958 6.54259 56.9848 5.87642 55.1283 5.87642ZM57.9974 15.5044C57.1932 16.3092 56.2546 16.7002 55.1283 16.7002C54.0024 16.7002 53.0673 16.3092 52.2669 15.504C51.4631 14.706 51.0726 13.7708 51.0726 12.6442C51.0726 11.5177 51.4635 10.5789 52.2678 9.77417C53.0664 8.97581 54.002 8.58816 55.1283 8.58816C56.2551 8.58816 57.1936 8.97623 57.9965 9.77334C58.7952 10.5781 59.1836 11.5173 59.1836 12.6442C59.1836 13.7712 58.7956 14.7064 57.9974 15.5044Z" fill="white"/>
<path d="M74.0119 6.65426L74.0111 6.65259C73.7634 6.15116 73.3429 5.88542 72.794 5.88542H64.5517C64.1782 5.88542 63.854 6.02022 63.5913 6.28377C63.3235 6.54434 63.1875 6.86647 63.1875 7.24087C63.1875 7.61397 63.3227 7.93871 63.5913 8.20737C63.8561 8.4658 64.1795 8.59632 64.5517 8.59632H70.0054L63.2594 17.2163C62.9141 17.6523 62.8585 18.1476 63.1006 18.6543C63.3479 19.1497 63.7718 19.4107 64.3262 19.4107H72.5686C72.9434 19.4107 73.2659 19.2751 73.52 19.0132C73.7878 18.7535 73.9238 18.4309 73.9238 18.0557C73.9238 17.6822 73.7886 17.3583 73.523 17.0917C73.2624 16.8321 72.9416 16.7002 72.5686 16.7002H67.1068L73.8626 8.07862C74.2006 7.64303 74.2527 7.15015 74.0119 6.65426Z" fill="white"/>
<path d="M86.8478 6.65426L86.8469 6.65259C86.5993 6.15116 86.1787 5.88542 85.6299 5.88542H77.3876C77.0141 5.88542 76.6898 6.02022 76.4272 6.28377C76.1594 6.54434 76.0234 6.86647 76.0234 7.24087C76.0234 7.61397 76.1585 7.93871 76.4272 8.20737C76.692 8.4658 77.0154 8.59632 77.3876 8.59632H82.8412L76.0952 17.2163C75.75 17.6523 75.6944 18.1476 75.9365 18.6543C76.1838 19.1497 76.6077 19.4107 77.1621 19.4107H85.4045C85.7792 19.4107 86.1018 19.2751 86.3558 19.0132C86.6236 18.7535 86.7597 18.4309 86.7597 18.0557C86.7597 17.6822 86.6245 17.3583 86.3589 17.0917C86.0983 16.8321 85.7775 16.7002 85.4045 16.7002H79.9422L86.6985 8.07862C87.0364 7.64303 87.0886 7.15015 86.8478 6.65426Z" fill="white"/>
<path d="M99.9919 7.1242C99.9465 6.75924 99.7767 6.45803 99.4884 6.22954C99.1992 5.99421 98.8638 5.8941 98.4857 5.93344C98.1199 5.97882 97.8183 6.14868 97.5908 6.43664L94.5001 10.3009L91.4154 6.43445C91.181 6.14654 90.8773 5.9784 90.5072 5.9326C90.1334 5.89327 89.798 5.99463 89.5127 6.22823C89.2218 6.45761 89.0541 6.76132 89.016 7.12503C88.9703 7.50021 89.0678 7.83784 89.3035 8.12663L93.1445 12.9357V18.0558C93.1445 18.4293 93.2792 18.7528 93.5453 19.0193C93.805 19.2795 94.1262 19.4108 94.4997 19.4108C94.8727 19.4108 95.1935 19.2795 95.4536 19.0193C95.7201 18.7528 95.8553 18.4293 95.8553 18.0558V12.9357L99.6937 8.12919C99.9303 7.8395 100.031 7.50366 99.9919 7.1242Z" fill="white"/>
<path d="M58.3306 22.8848C56.3145 22.8848 54.6744 24.5256 54.6744 26.5421C54.6744 28.5581 56.3145 30.1989 58.3306 30.1989C60.3467 30.1989 61.9868 28.5581 61.9868 26.5421C61.9868 24.5256 60.3467 22.8848 58.3306 22.8848ZM58.3306 28.645C57.1713 28.645 56.2281 27.7016 56.2281 26.5421C56.2281 25.3826 57.1713 24.4388 58.3306 24.4388C59.4899 24.4388 60.4331 25.3826 60.4331 26.5421C60.4331 27.7016 59.4899 28.645 58.3306 28.645Z" fill="white"/>
<path d="M52.0032 28.9481L51.2503 27.5935C51.2049 27.5225 51.1677 27.4592 51.1382 27.404C51.1091 27.3484 51.0813 27.3047 51.0552 27.2722C51.0291 27.2328 51.006 27.2003 50.9868 27.1747V27.1554C51.1622 27.0707 51.3144 26.9586 51.4449 26.8183C51.5745 26.6792 51.6828 26.5226 51.7704 26.3506C51.8586 26.1782 51.9232 25.9993 51.9651 25.8141C52.007 25.6284 52.028 25.4418 52.028 25.2532C52.0276 24.7466 51.9116 24.3192 51.6806 23.9718C51.45 23.6243 51.1361 23.3757 50.7395 23.2273C50.5898 23.1691 50.4161 23.1263 50.2176 23.1011C50.0196 23.075 49.7415 23.0626 49.3843 23.063L47.494 23.0643C47.1368 23.0647 46.958 23.2435 46.9584 23.6008L46.964 29.2972C46.964 29.3572 46.9708 29.4093 46.9807 29.459C47.0474 29.862 47.3952 30.17 47.817 30.17C48.2409 30.17 48.5899 29.8586 48.6541 29.4521C48.6631 29.4042 48.6695 29.3537 48.6691 29.2959L48.6674 27.6838L49.4673 27.6829L50.5021 29.6511C50.5166 29.6772 50.535 29.696 50.5513 29.7195C50.6886 29.9839 50.9611 30.1666 51.2798 30.1666C51.7345 30.1666 52.1033 29.7978 52.1033 29.3426C52.1033 29.201 52.0639 29.0692 52.0006 28.9523L52.0032 28.9481ZM50.0551 26.0011C49.8959 26.1478 49.6799 26.2205 49.407 26.2214L48.6661 26.2218L48.6644 24.5254L49.2397 24.525C49.5191 24.5245 49.7334 24.5571 49.8836 24.6225C50.0457 24.6867 50.1543 24.7826 50.2095 24.9092C50.2651 25.0358 50.2934 25.1868 50.2934 25.3623C50.2934 25.6416 50.2138 25.8547 50.0551 26.0011Z" fill="white"/>
<path d="M78.9269 24.4674C78.8157 24.1751 78.6613 23.9219 78.4628 23.7075C78.2643 23.4932 78.0256 23.328 77.7463 23.2112C77.4665 23.094 77.1577 23.0362 76.8197 23.0362L74.4614 23.0384C74.1038 23.0388 73.9258 23.2181 73.9258 23.5753L73.9314 29.3055C73.9314 29.3064 73.9318 29.3068 73.9318 29.3077C73.9318 29.3106 73.9327 29.3492 73.9335 29.365C73.9353 29.3941 73.9395 29.4219 73.9438 29.448C74.0075 29.8562 74.3575 30.1698 74.7835 30.1698C75.1758 30.1698 75.5031 29.9032 75.6023 29.5426C75.6032 29.5391 75.604 29.5362 75.6053 29.5332C75.6113 29.5092 75.6173 29.4857 75.6216 29.4609C75.6305 29.4129 75.6369 29.3616 75.6369 29.3043L75.6352 27.853L76.8244 27.8517C77.1624 27.8517 77.4712 27.7914 77.7506 27.6707C78.0295 27.5505 78.2682 27.3828 78.4662 27.1685C78.6643 26.9536 78.8179 26.6982 78.9287 26.4025C79.0386 26.1069 79.0934 25.7834 79.0934 25.4327C79.0929 25.0814 79.0373 24.7604 78.9269 24.4674ZM77.1397 26.1219C76.9938 26.3003 76.771 26.3897 76.472 26.3901L75.6339 26.391L75.6322 24.4999L76.4998 24.4991C76.7855 24.4986 77.0003 24.5851 77.1431 24.757C77.286 24.9286 77.3583 25.1549 77.3583 25.4339C77.3587 25.7137 77.2856 25.9426 77.1397 26.1219Z" fill="white"/>
<path d="M70.6838 23.7447C70.6166 23.3421 70.2693 23.0344 69.8475 23.0344C69.427 23.0344 69.0801 23.3403 69.0116 23.7412C69.0014 23.7913 68.9945 23.8448 68.9945 23.9047L68.9984 27.4404C68.9988 27.811 68.8897 28.0904 68.6724 28.2791C68.4547 28.4678 68.1612 28.5623 67.7908 28.5632C67.4203 28.5632 67.126 28.4691 66.9083 28.2803C66.6905 28.0929 66.5814 27.8131 66.5814 27.4426L66.5776 23.9073C66.5776 23.9004 66.5763 23.8945 66.5763 23.8876C66.5763 23.885 66.5772 23.8829 66.5772 23.8803C66.5772 23.8675 66.5737 23.8555 66.5733 23.8431C66.5716 23.8166 66.5695 23.7904 66.5656 23.7661C66.5087 23.3511 66.1567 23.0297 65.7263 23.0297C65.3045 23.0297 64.9567 23.3378 64.8896 23.7404C64.8789 23.7917 64.8716 23.8465 64.8716 23.9085L64.8755 27.4443C64.8759 27.8341 64.946 28.1935 65.0864 28.5217C65.2258 28.8494 65.423 29.1318 65.6763 29.3688C65.9304 29.6054 66.2375 29.7907 66.5981 29.9233C66.9587 30.0559 67.3604 30.1226 67.8023 30.1226C68.2374 30.1222 68.6335 30.0546 68.9907 29.9208C69.3479 29.7872 69.6529 29.602 69.9061 29.3645C70.1598 29.1275 70.3557 28.8442 70.4951 28.5161C70.6346 28.1884 70.7039 27.829 70.7039 27.4392L70.7001 23.9034C70.7001 23.8452 70.6932 23.7935 70.6838 23.7447Z" fill="white"/>
<path d="M43.1311 26.1009C43.129 26.1009 43.1281 26.1005 43.126 26.1005L41.7897 26.1013C41.7704 26.1013 41.7541 26.1009 41.7362 26.1017C41.7285 26.1017 41.7212 26.1026 41.7131 26.1026C41.3127 26.1026 40.988 26.4274 40.988 26.8279C40.988 27.2288 41.3127 27.5534 41.7131 27.5534C41.7229 27.5534 41.7319 27.5543 41.7417 27.5539C41.7584 27.5548 41.7734 27.5539 41.7909 27.5539H42.4403C42.3419 28.0502 41.7991 28.814 40.4747 28.5243L40.4789 28.5277C40.4006 28.5067 40.3237 28.4827 40.2484 28.4524C40.0075 28.3548 39.7975 28.2153 39.6191 28.0335C39.4399 27.8522 39.297 27.6331 39.1896 27.3759C39.0822 27.1192 39.0284 26.8287 39.0279 26.504C39.0275 26.2434 39.0664 25.9936 39.1443 25.7531C39.2221 25.5122 39.3432 25.2995 39.5092 25.1139C39.6743 24.929 39.8826 24.7831 40.132 24.6749C40.3827 24.5675 40.683 24.5136 41.0338 24.5132C41.3388 24.5132 41.5907 24.5486 41.7892 24.6197C41.9873 24.6912 42.1674 24.7695 42.3303 24.8537C42.3774 24.8781 42.4219 24.897 42.4655 24.9128C42.5618 24.9568 42.6683 24.9825 42.7808 24.9825C43.2017 24.9825 43.5431 24.6411 43.5431 24.2201C43.5431 24.0002 43.4485 23.803 43.2988 23.6639C43.2667 23.6309 43.2304 23.5984 43.1868 23.5659C43.1153 23.5137 43.0096 23.4521 42.8698 23.381C42.7299 23.3096 42.5626 23.2433 42.3675 23.1817C42.1725 23.1196 41.9535 23.067 41.7096 23.0212C41.4662 22.9763 41.2044 22.9536 40.9251 22.9541C40.3921 22.9545 39.9019 23.046 39.454 23.2287C39.0052 23.4106 38.619 23.6626 38.2947 23.9848C37.97 24.307 37.7168 24.6903 37.5354 25.1353C37.354 25.5811 37.2633 26.0701 37.2638 26.6028C37.2646 27.1492 37.3587 27.6429 37.5482 28.084C37.7365 28.5265 37.9906 28.8999 38.3097 29.205C38.6275 29.51 38.9933 29.7454 39.4065 29.9106C39.7889 30.0637 40.1876 30.1424 40.6008 30.1531C41.222 30.201 41.9197 30.1275 42.5382 29.8049C43.9508 29.0676 44.0166 27.5483 43.9786 26.9202C43.9614 26.4655 43.5901 26.1009 43.1311 26.1009Z" fill="white"/>
</svg>
