<svg width="83" height="32" viewBox="0 0 83 32" fill="none" xmlns="http://www.w3.org/2000/svg">
<path d="M34.0466 -1.04845e-05C30.2577 0.0933335 27.6058 2.68575 26.3627 4.22592C26.3627 4.22592 26.3118 4.28533 26.2608 4.34897C26.1802 4.32351 26.1081 4.29381 26.1081 4.29381C23.5114 3.35613 20.5754 3.18217 17.618 3.78466C14.7795 4.3617 10.6936 5.83823 7.73632 8.22274C2.52179 12.4317 -0.223375 17.4977 0.0142279 22.4959C0.150001 25.3811 1.47803 27.8886 3.85406 29.7173C7.76602 32.734 14.2152 32.0467 16.8077 31.6054C19.7098 31.1175 65.1428 22.9753 71.1041 21.834C76.5308 20.7987 81.6944 18.9573 82.7297 12.5463C82.7933 12.1729 82.823 11.7825 82.823 11.3964V11.3413C82.823 9.7714 82.3351 8.30336 81.4865 7.319C79.8954 5.47334 77.2224 5.25271 75.3513 5.24422C72.7589 5.24422 44.8872 5.77459 41.7178 5.83823C41.7178 5.83823 41.6117 5.83823 41.5141 5.83823C41.5014 5.7364 41.4886 5.63881 41.4886 5.63881C41.3232 4.36594 40.8055 3.21187 39.9994 2.29116C39.0362 1.21346 37.2288 -0.0721399 34.0466 -1.04845e-05Z" fill="#EE7300"/>
<path d="M31.5942 8.43914C31.2505 7.98091 31.1699 7.3869 31.3439 6.68682C31.4966 6.05887 31.8233 5.56245 32.307 5.19756C32.9434 4.71811 33.8175 4.489 34.7806 4.5484C36.5117 4.64599 37.3603 5.78733 37.2754 6.88624C37.1439 8.53249 35.5995 9.23681 34.0169 9.30894C32.9137 9.35137 32.0397 9.04588 31.5942 8.44339V8.43914ZM79.5221 12.3553C79.3014 13.1912 78.4486 13.9083 77.8249 13.9804L77.7273 13.9931L77.6891 14.0907C77.0909 15.5078 76.0089 16.3691 74.4263 16.6152C73.145 16.8104 71.9273 16 71.6345 14.6211L71.5793 14.358C70.455 16.8316 69.1312 17.3408 68.1383 17.4893C67.7225 17.5529 66.3181 17.5656 66.4709 15.8939C66.5642 14.9096 66.8061 13.904 67.0352 13.0851C67.2261 12.4063 67.3916 11.8165 67.4086 11.2946C67.4086 11.0358 67.3407 10.8109 67.2049 10.6667C67.1158 10.5691 67.0012 10.5224 66.8824 10.5309C66.2672 10.5691 65.7326 12.1517 65.5332 12.9833C65.5332 12.9833 64.4131 17.782 64.3579 18.0196C64.1543 18.0493 61.5831 18.4779 61.1927 18.5415L62.1686 14.5829L61.9607 14.7229C61.7146 14.8884 61.46 15.0199 61.2097 15.1132L61.1121 15.1514L61.0909 15.2533C60.586 17.7311 58.944 19.144 56.2031 19.5471C54.0901 19.8568 52.6857 19.1398 52.3632 17.362L52.2868 16.9122L52.1511 17.1541L52.0535 17.3195C51.3746 18.5118 49.9405 20.5569 47.9209 20.8539C47.1826 20.9642 46.5632 20.8072 46.1304 20.3957C45.6594 19.9586 45.4218 19.2543 45.4473 18.3591C45.4855 17.1371 45.8801 15.9873 46.228 14.9647L46.3425 14.638C46.3425 14.638 46.9408 12.5463 47.0511 12.1305C47.1657 11.7147 46.8687 11.1504 46.2916 11.3922C46.0073 11.511 45.914 11.7571 45.8122 11.948C45.6976 12.1644 45.6043 12.6608 45.4643 13.4288C45.1672 15.0666 44.6199 18.0918 43.538 19.6447C42.1633 21.6091 40.6019 22.0249 39.9909 22.1183C38.5016 22.3389 37.1991 21.9486 36.4438 21.2909C34.7976 22.5765 32.4385 23.3445 31.102 23.5142C27.8901 23.9215 27.1773 21.8807 27.6992 19.9544C27.7119 19.9162 27.7077 19.878 27.7119 19.8313C25.5014 22.4535 22.4974 24.9441 18.8315 25.6399C14.7244 26.4121 12.3738 25.7714 10.4857 24.0403C9.12376 22.7929 8.30063 20.052 8.92434 17.782C10.787 11.0443 17.2489 8.00212 21.4918 7.88332C24.2497 7.80271 25.4802 8.35853 26.5366 9.45744C27.1943 10.1406 27.5125 11.0697 27.4743 12.2026C27.4064 14.2986 25.879 15.7157 24.0036 15.8854C23.1635 15.9618 22.421 15.7327 21.9161 15.2405C21.4027 14.7356 21.1482 13.9634 21.1779 13.0172C21.2245 11.545 22.4465 10.3612 23.206 9.95386C23.206 9.95386 23.6303 9.70353 24.1139 9.55079C24.4025 9.07134 19.6462 7.65421 16.6931 13.9379C16.1967 14.9944 15.887 15.6818 15.5475 17.5359C15.0596 20.1538 15.7851 22.0334 17.0537 22.8099C17.9872 23.3911 19.4552 23.476 21.3348 22.9838C24.8649 22.0674 28.2932 17.5784 29.477 14.2859C30.0795 12.6057 30.665 10.7855 30.822 10.3145C31.0511 10.3103 35.6674 10.1533 36.1086 10.1363C35.9559 10.5945 33.4568 18.0493 33.4568 18.0493C33.3805 18.27 32.8331 20.0308 33.2362 20.5781C33.372 20.7605 33.7666 20.9684 34.1696 20.9133C34.84 20.8157 35.2304 20.5187 35.7225 20.2387C35.4552 19.7974 35.1413 19.0507 35.3152 18.1681C35.5953 16.7298 37.1439 15.5927 38.5568 16.5261C39.2654 16.9886 39.5709 17.973 38.892 19.1016C38.5907 19.6022 38.2046 19.9926 37.5767 20.472C37.844 20.6417 38.2174 20.663 38.6374 20.6078C40.4661 20.366 41.0686 18.5712 41.425 15.9491L41.4462 15.8642C41.6923 13.6791 42.1421 11.4728 43.7798 9.99205C45.3285 8.59613 47.3863 9.90719 47.4796 10.8831L47.8191 9.68656C47.8191 9.68656 51.2813 9.62716 51.6886 9.61443C51.5656 10.0514 49.7623 16.6322 49.7623 16.6322L49.6987 17.2347V17.2432C49.6987 17.4129 49.7496 17.5614 49.8514 17.659C49.9448 17.7523 50.0763 17.7948 50.2121 17.7778C50.9249 17.6929 51.8541 16.1952 52.3887 14.8077C52.3972 14.7865 52.4014 14.7696 52.4099 14.7526L52.4184 14.7356V14.7144C52.4863 14.3707 52.5711 14.044 52.7069 13.5561L52.813 13.17C52.813 13.17 53.5173 10.2381 53.6828 9.56776C53.9119 9.55503 57.0771 9.44047 57.0771 9.44047C57.0771 9.44047 55.3248 16.7892 55.2993 17.676C55.2866 18.0663 55.3927 18.3888 55.5793 18.567C55.6981 18.6773 55.8424 18.7282 56.0036 18.707C57.0559 18.567 57.8238 17.6081 58.1124 15.8218L58.159 15.546L57.9087 15.6266C55.7236 16.2631 55.6175 11.7444 59.2707 11.4304C60.692 11.3116 61.0654 12.7669 61.1206 13.1912C61.1672 13.3906 61.197 13.5731 61.2139 13.7682L61.2309 13.9634L61.4091 13.9125C61.7867 13.8191 62.2449 13.4627 62.5674 13.0257L63.5051 9.23681C63.7257 9.22408 65.8302 9.16044 66.1654 9.14347C66.1102 9.3938 65.9151 10.3188 65.9151 10.3188L66.3351 9.83506C66.56 9.57624 67.3746 9.05861 68.2444 8.99072C69.4282 8.90162 70.578 9.27075 70.3998 11.1334C70.3277 11.9353 70.1622 12.6481 69.967 13.4246C69.8228 14.0016 69.6997 14.4556 69.6955 14.7483C69.6955 14.9096 69.7379 15.0496 69.827 15.1302C69.8992 15.2066 69.9925 15.2405 70.0901 15.2236C70.5653 15.1684 71.2314 13.8276 71.5921 12.8772C71.5921 12.8518 71.5921 12.839 71.5963 12.8263L71.6048 12.8136V12.7924C71.9315 10.0557 74.0614 8.78706 75.5168 8.70645C77.897 8.57067 78.2534 10.1618 78.2237 11.6935C78.2152 12.0244 78.0498 13.1318 78.0498 13.1318L78.2365 13.0851C78.6523 13.0172 79.1232 12.4996 79.3523 11.9989C79.4669 12.1432 79.4881 12.3129 79.5305 12.3723L79.5221 12.3553ZM36.7366 19.6022C37.3179 19.1737 37.7549 18.6561 37.9119 18.3166C38.2301 17.6208 38.0052 17.2729 37.4367 17.2474C36.7154 17.2135 36.0238 18.4821 36.7366 19.598V19.6022ZM58.3118 13.3524C58.2524 13.2803 58.0445 13.2379 57.8663 13.327C57.5523 13.4712 57.1959 14.0016 57.2723 14.3368C57.2892 14.4216 57.3783 14.6253 57.7559 14.5659C58.1124 14.5023 58.3457 14.4047 58.4475 14.2519C58.4475 14.2519 58.5748 13.6537 58.3118 13.3567V13.3524ZM75.9198 13.8785C75.9198 13.8785 75.1094 13.4161 75.1816 12.4487C75.2961 10.8279 76.3781 10.7897 76.3781 10.7897L76.3908 10.7218C76.446 10.1745 76.3569 9.7205 76.1405 9.47441C76.0429 9.35985 75.9071 9.30045 75.7671 9.31318C74.7318 9.35986 73.9596 13.013 73.9299 14.4726C73.9172 15.0963 74.0063 15.266 74.2142 15.4569C74.3415 15.58 74.5154 15.6181 74.7233 15.5884C75.3386 15.5121 75.6483 14.7738 75.8732 14.0865L75.9241 13.8743L75.9198 13.8785ZM76.3314 11.825C76.2508 11.7741 76.1065 11.791 76.0089 11.9183C75.818 12.1517 75.801 12.7924 76.1574 13.013C76.2847 12.5675 76.3102 12.2196 76.3314 11.825Z" fill="white"/>
</svg>
