<svg width="83" height="32" viewBox="0 0 83 32" fill="none" xmlns="http://www.w3.org/2000/svg">
<path d="M57.8648 13.3227C57.5508 13.467 57.1944 13.9974 57.2707 14.3325C57.2877 14.4174 57.3768 14.6211 57.7544 14.5617C58.1108 14.498 58.3442 14.4004 58.446 14.2477C58.446 14.2477 58.5733 13.6494 58.3103 13.3524C58.2509 13.2803 58.043 13.2379 57.8648 13.327V13.3227Z" fill="white"/>
<path d="M76.0074 11.9141C75.8165 12.1474 75.7995 12.7881 76.1559 13.0088C76.2832 12.5633 76.3087 12.2153 76.3299 11.8207C76.2493 11.7698 76.105 11.7868 76.0074 11.9141Z" fill="white"/>
<path d="M37.4352 17.2517C36.7139 17.2177 36.0223 18.4863 36.7351 19.6022C37.3164 19.1737 37.7534 18.6561 37.9104 18.3166C38.2286 17.6208 38.0037 17.2729 37.4352 17.2474V17.2517Z" fill="white"/>
<path d="M75.7613 9.31742C74.7261 9.36409 73.9539 13.0172 73.9242 14.4768C73.9114 15.1005 74.0005 15.2702 74.2084 15.4611C74.3357 15.5842 74.5097 15.6224 74.7176 15.5927C75.3328 15.5163 75.6425 14.778 75.8674 14.0907L75.9183 13.8785C75.9183 13.8785 75.1079 13.4161 75.1801 12.4487C75.2946 10.8279 76.3766 10.7939 76.3766 10.7939L76.3893 10.7261C76.4444 10.1787 76.3553 9.72474 76.139 9.47865C76.0414 9.36409 75.9056 9.30469 75.7656 9.31742H75.7613Z" fill="white"/>
<path d="M81.485 7.31902C79.8939 5.47335 77.2209 5.25272 75.3498 5.24424C72.7574 5.24424 44.8857 5.7746 41.7163 5.83824C41.7163 5.83824 41.6102 5.83824 41.5126 5.83824C41.4999 5.73641 41.4871 5.63883 41.4871 5.63883C41.3217 4.36596 40.804 3.21189 39.9979 2.29117C39.0347 1.21348 37.2273 -0.0721246 34.0451 4.7743e-06C30.2562 0.0933487 27.6044 2.68576 26.3612 4.22594C26.3612 4.22594 26.3103 4.28534 26.2594 4.34898C26.1787 4.32353 26.1066 4.29383 26.1066 4.29383C23.5099 3.35614 20.5739 3.18218 17.6166 3.78468C14.778 4.36171 10.6921 5.83824 7.73482 8.22276C2.52029 12.4317 -0.22487 17.4978 0.0127326 22.4959C0.148506 25.3811 1.47654 27.8886 3.85256 29.7173C7.76452 32.734 14.2137 32.0467 16.8062 31.6054C19.7083 31.1175 65.1414 22.9753 71.1026 21.834C76.5293 20.7987 81.6929 18.9573 82.7282 12.5463C82.7918 12.1729 82.8215 11.7826 82.8215 11.3965V11.3413C82.8215 9.77142 82.3336 8.30337 81.485 7.31902ZM31.3424 6.68258C31.4951 6.05463 31.8218 5.55821 32.3055 5.19332C32.9419 4.71387 33.816 4.48476 34.7791 4.54416C36.5102 4.64174 37.3588 5.78309 37.2739 6.882C37.1424 8.52825 35.598 9.23257 34.0154 9.3047C32.9122 9.34713 32.0382 9.04164 31.5927 8.43915C31.249 7.98091 31.1684 7.38691 31.3424 6.68258ZM77.8276 13.9804L77.7301 13.9931L77.6876 14.0907C77.0894 15.5078 76.0074 16.3691 74.4248 16.6152C73.1435 16.8104 71.9258 16 71.633 14.6211L71.5778 14.358C70.4535 16.8316 69.1297 17.3408 68.1368 17.4893C67.721 17.5529 66.3166 17.5656 66.4694 15.8939C66.5627 14.9096 66.8046 13.904 67.0337 13.0851C67.2246 12.4063 67.3901 11.8165 67.4071 11.2946C67.4071 11.0358 67.3392 10.8109 67.2034 10.6667C67.1143 10.5691 66.9997 10.5224 66.8809 10.5309C66.2657 10.5691 65.7311 12.1517 65.5317 12.9833C65.5317 12.9833 64.4116 17.782 64.3564 18.0196C64.1528 18.0493 61.5816 18.4779 61.1954 18.5415L62.1713 14.5829L61.9634 14.7229C61.7173 14.8884 61.4628 15.0199 61.2124 15.1132L61.1148 15.1514L61.0936 15.2533C60.5887 17.7311 58.9467 19.144 56.2058 19.5471C54.0928 19.8568 52.6884 19.1398 52.366 17.362L52.2896 16.9122L52.1538 17.1541L52.0562 17.3195C51.3774 18.5118 49.9433 20.5569 47.9236 20.8539C47.1854 20.9642 46.5659 20.8072 46.1331 20.3957C45.6622 19.9586 45.4246 19.2543 45.45 18.3591C45.4882 17.1371 45.8828 15.9873 46.2307 14.9647L46.3453 14.638C46.3453 14.638 46.9393 12.5463 47.0538 12.1305C47.1684 11.7147 46.8714 11.1504 46.2944 11.3922C46.0101 11.511 45.9167 11.7571 45.8149 11.948C45.7004 12.1644 45.607 12.6608 45.467 13.4288C45.17 15.0666 44.6227 18.0918 43.5407 19.6447C42.166 21.6091 40.6046 22.0249 39.9936 22.1183C38.5044 22.3389 37.2018 21.9486 36.4466 21.2909C34.8003 22.5765 32.4413 23.3402 31.1048 23.5142C27.8929 23.9215 27.1801 21.8807 27.7019 19.9544C27.7147 19.912 27.7104 19.878 27.7147 19.8314C25.5041 22.4535 22.5001 24.9441 18.8343 25.6399C14.7271 26.4121 12.3766 25.7714 10.4885 24.0403C9.1265 22.7929 8.30337 20.052 8.92708 17.782C10.7897 11.0443 17.2517 8.00213 21.4946 7.88332C24.2525 7.80271 25.4829 8.35429 26.5394 9.45744C27.197 10.1406 27.5153 11.0697 27.4771 12.2026C27.4092 14.2986 25.8817 15.7157 24.0064 15.8854C23.1663 15.9618 22.4238 15.7327 21.9189 15.2405C21.4055 14.7356 21.1509 13.9634 21.1806 13.0172C21.2273 11.545 22.4492 10.3612 23.2087 9.95386C23.2087 9.95386 23.633 9.70353 24.1167 9.55079C24.4052 9.07134 19.6489 7.65421 16.6958 13.938C16.1994 14.9944 15.8897 15.6818 15.5503 17.5359C15.0623 20.1538 15.7879 22.0334 17.0565 22.8099C17.9899 23.3911 19.458 23.476 21.3376 22.9838C24.8677 22.0674 28.2959 17.5784 29.4797 14.2859C30.0822 12.6057 30.6677 10.7855 30.8247 10.3145C31.0538 10.3103 35.6701 10.1533 36.1114 10.1363C35.9586 10.5945 33.4596 18.0493 33.4596 18.0493C33.3832 18.27 32.8359 20.0308 33.2389 20.5781C33.3747 20.7605 33.7693 20.9684 34.1724 20.9133C34.8428 20.8157 35.2331 20.5187 35.7253 20.2387C35.458 19.7974 35.144 19.0507 35.318 18.1681C35.598 16.7298 37.1466 15.5927 38.5595 16.5261C39.2681 16.9886 39.5736 17.973 38.8947 19.1016C38.5935 19.6065 38.2074 19.9926 37.5794 20.472C37.8467 20.6417 38.2201 20.663 38.6402 20.6078C40.4688 20.366 41.0713 18.5712 41.4277 15.9491L41.449 15.8642C41.695 13.6791 42.1448 11.4728 43.7826 9.99205C45.3312 8.59613 47.389 9.90719 47.4824 10.8831L47.8218 9.68656C47.8218 9.68656 51.284 9.62716 51.6913 9.61443C51.5683 10.0515 49.7651 16.6322 49.7651 16.6322L49.7014 17.2347V17.2432C49.7014 17.4129 49.7523 17.5614 49.8542 17.659C49.9475 17.7523 50.079 17.7948 50.2148 17.7778C50.9276 17.6929 51.8568 16.1952 52.3914 14.8077C52.3999 14.7865 52.4041 14.7696 52.4126 14.7526L52.4211 14.7356V14.7144C52.489 14.3707 52.5739 14.044 52.7096 13.5561L52.8157 13.17C52.8157 13.17 53.52 10.2381 53.6855 9.56776C53.9146 9.55503 57.0798 9.44047 57.0798 9.44047C57.0798 9.44047 55.3275 16.7892 55.302 17.676C55.2893 18.0663 55.3954 18.3888 55.5821 18.567C55.7009 18.6773 55.8451 18.7282 56.0064 18.707C57.0586 18.567 57.8266 17.6081 58.1151 15.8218L58.1618 15.546L57.9114 15.6266C55.7263 16.2631 55.6203 11.7444 59.2734 11.4304C60.6948 11.3116 61.0682 12.7669 61.1233 13.1912C61.17 13.3906 61.1997 13.5731 61.2167 13.7682L61.2336 13.9634L61.4118 13.9125C61.7895 13.8192 62.2477 13.4627 62.5702 13.0257L63.5078 9.23681C63.7285 9.22408 65.8329 9.16044 66.1681 9.14347C66.113 9.3938 65.9178 10.3188 65.9178 10.3188L66.3379 9.83506C66.5627 9.57624 67.3774 9.05861 68.2472 8.99072C69.4309 8.90162 70.5808 9.27076 70.4026 11.1334C70.3304 11.9353 70.165 12.6481 69.9698 13.4246C69.8255 14.0016 69.7025 14.4556 69.6982 14.7483C69.6982 14.9096 69.7407 15.0496 69.8298 15.1302C69.9019 15.2066 69.9952 15.2405 70.0928 15.2236C70.568 15.1684 71.2342 13.8276 71.5948 12.8772C71.5948 12.8518 71.5948 12.8348 71.5991 12.8263L71.6075 12.8136V12.7924C71.9342 10.0557 74.0642 8.78706 75.5195 8.70645C77.8998 8.57068 78.2562 10.1618 78.2265 11.6935C78.218 12.0244 78.0525 13.1318 78.0525 13.1318L78.2392 13.0851C78.655 13.0172 79.126 12.4996 79.3551 11.9989C79.4696 12.1432 79.4909 12.3129 79.5333 12.3723C79.3127 13.2082 78.4598 13.9252 77.8361 13.9974L77.8276 13.9804Z" fill="white"/>
</svg>
