<svg width="89" height="32" viewBox="0 0 89 32" fill="none" xmlns="http://www.w3.org/2000/svg">
<path d="M44 5.13132H47.5874V14.9199H50.1079V5.13132H53.7086V2.84198H44V5.13132Z" fill="white"/>
<path d="M54.9311 14.9199H64.3729V12.6172H57.4338V10.0345H62.8793V7.73183H57.4338V5.13132H64.3729V2.84198H54.9311V14.9199Z" fill="white"/>
<path d="M71.7833 6.17153L68.5648 2.84198H66.2577V14.9199H68.7604V6.70497L70.5208 8.47865C70.5341 8.51866 70.5563 8.62979 70.5563 8.86095V10.0345H73.0502V8.86095C73.0502 8.62979 73.0724 8.51866 73.0857 8.4742L74.8416 6.69163V14.9155H77.3355V2.84198H75.0372L71.7833 6.17153Z" fill="white"/>
<path d="M86.4217 3.60213C86.2795 3.34875 86.1239 3.1576 85.9638 3.03757C85.7905 2.90421 85.5371 2.84198 85.1904 2.84198H82.8432C82.1942 2.84198 81.8697 3.04202 81.5896 3.61102L79.1803 8.17637C79.0736 8.38085 79.0247 8.72314 79.0247 9.31881V14.9199H81.5274V11.2436H86.5062V14.9199H89V9.31881C89 8.56755 88.9289 8.32306 88.8533 8.17637L86.4217 3.60213ZM86.5062 8.94541L81.5274 8.94096V8.94985L83.55 5.13132H84.528L86.5017 8.94985L86.5062 8.94541Z" fill="white"/>
<path d="M55.8157 17.9961C55.2244 17.4715 54.4999 17.2048 53.6553 17.2048H47.2896V29.2827H53.6553C54.5043 29.2827 55.2289 29.0116 55.8157 28.4826C56.4247 27.9403 56.7314 27.2779 56.7314 26.5044V24.873C56.7314 24.2417 56.5403 23.6861 56.1669 23.2282C56.5403 22.7703 56.7314 22.228 56.7314 21.6146V19.9609C56.7314 19.1919 56.4247 18.534 55.8157 18.0005V17.9961ZM49.7878 22.0947V19.4897H53.6553C53.9709 19.4897 54.2376 19.712 54.2376 19.9742V21.6279C54.2376 21.8768 53.9664 22.0947 53.6553 22.0947H49.7878ZM54.2376 26.5044C54.2376 26.6244 54.1887 26.7222 54.0776 26.82C53.9486 26.9267 53.8153 26.9801 53.6553 26.9801H49.7878V24.4018H53.6553C53.9709 24.4018 54.2376 24.6196 54.2376 24.8774V26.5089V26.5044Z" fill="white"/>
<path d="M57.9094 19.4897H61.2123V26.9801H57.9094V29.2827H66.9956V26.9801H63.7017V19.4897H66.9956V17.2048H57.9094V19.4897Z" fill="white"/>
<path d="M68.0448 17.2048V19.4897H71.4543V29.2827H73.9704V19.4897H77.3977V17.2048H68.0448Z" fill="white"/>
<path d="M7.75501 7.52784L10.1871 5.09577L5.09577 0L1.4343 3.66147C0.516704 4.57907 0 5.82183 0 7.12249V24.882C0 26.1782 0.516704 27.4209 1.4343 28.3385L5.09577 32L10.1915 26.9042L7.75947 24.4722C7.31849 24.0312 7.0735 23.4343 7.0735 22.8107V9.18931C7.0735 8.5657 7.32294 7.96882 7.75947 7.52784H7.75501Z" fill="#FF0000"/>
<path d="M36.2584 3.66147L32.5969 0L27.5011 5.09577L29.9332 7.52784C30.3742 7.96882 30.6192 8.5657 30.6192 9.18931V22.8107C30.6192 23.4343 30.3697 24.0312 29.9332 24.4722L27.5011 26.9042L32.5969 32L36.2584 28.3385C37.1759 27.4209 37.6927 26.1782 37.6927 24.882V7.12249C37.6927 5.82628 37.1759 4.58352 36.2584 3.66592V3.66147Z" fill="#FF0000"/>
<path d="M22.3786 5.1002H15.3096V26.9978H22.3786V5.1002Z" fill="#FF0000"/>
</svg>
